<?xml version="1.0"?>
<svg xmlns="http://www.w3.org/2000/svg" xmlns:xlink="http://www.w3.org/1999/xlink" version="1.1" id="Layer_1" x="0px" y="0px" viewBox="0 0 511.999 511.999" style="enable-background:new 0 0 511.999 511.999;" xml:space="preserve" width="512px" height="512px" class=""><g><g>
	<g>
		<path d="M508.661,241.064l-59.122-57.352V68.555c0-6.072-4.923-10.997-10.997-10.997h-62.68c-6.073,0-10.997,4.924-10.997,10.997    v33.016L263.658,3.39c-4.266-4.139-11.048-4.139-15.314,0L3.34,241.064c-2.164,2.099-3.372,4.996-3.34,8.01    c0.032,3.015,1.301,5.885,3.509,7.937l43.712,40.63c4.304,4.002,10.992,3.913,15.186-0.203l13.873-13.604v216.883    c0,6.072,4.923,10.997,10.997,10.997h337.445c6.073,0,10.996-4.924,10.996-10.997V283.833l13.873,13.604    c2.135,2.094,4.917,3.145,7.7,3.145c2.684,0,5.373-0.979,7.485-2.943l43.712-40.63c2.208-2.052,3.477-4.922,3.509-7.937    C512.031,246.059,510.824,243.163,508.661,241.064z M386.859,79.551h40.687v82.825l-5.988-5.808l-34.699-33.663V79.551z     M413.726,489.721H98.274V262.268l157.726-154.665l157.725,154.665V489.721z M457.494,274.384L263.699,84.351    c-4.277-4.194-11.122-4.194-15.398,0L54.506,274.384l-27.54-25.599L256.001,26.604l159.093,154.333l15.792,15.32    c0,0.001,0.001,0.001,0.002,0.001l54.148,52.528L457.494,274.384z" data-original="#000000" class="active-path" data-old_color="#FCFBFB" fill="#FFFEFE"/>
	</g>
</g><g>
	<g>
		<path d="M324.351,273.884c-4.294-4.292-11.257-4.292-15.551,0l-148.63,148.629c-4.294,4.295-4.294,11.258,0,15.552    c2.148,2.147,4.962,3.221,7.776,3.221c2.814,0,5.629-1.074,7.776-3.221l148.63-148.629    C328.645,285.142,328.645,278.179,324.351,273.884z" data-original="#000000" class="active-path" data-old_color="#FCFBFB" fill="#FFFEFE"/>
	</g>
</g><g>
	<g>
		<path d="M353.023,253.856c-0.143-0.704-0.363-1.397-0.638-2.067c-0.275-0.66-0.616-1.298-1.012-1.891    c-0.396-0.605-0.858-1.167-1.364-1.673c-2.562-2.55-6.356-3.717-9.919-3.001c-0.704,0.132-1.397,0.352-2.067,0.627    c-0.66,0.275-1.298,0.616-1.891,1.012c-0.605,0.395-1.166,0.857-1.671,1.362c-0.506,0.506-0.968,1.068-1.364,1.673    c-0.396,0.594-0.737,1.232-1.012,1.891c-0.275,0.671-0.495,1.364-0.638,2.067c-0.143,0.705-0.209,1.431-0.209,2.144    c0,0.715,0.066,1.442,0.209,2.144c0.143,0.703,0.363,1.395,0.638,2.056c0.275,0.67,0.616,1.307,1.012,1.901    c0.396,0.606,0.858,1.167,1.364,1.673c0.506,0.506,1.067,0.968,1.671,1.364c0.594,0.406,1.232,0.737,1.891,1.012    c0.671,0.275,1.364,0.494,2.067,0.626c0.704,0.143,1.43,0.22,2.144,0.22c0.715,0,1.441-0.077,2.144-0.22    c0.704-0.132,1.397-0.351,2.056-0.626c0.671-0.275,1.309-0.606,1.902-1.012c0.605-0.396,1.166-0.858,1.672-1.364    c0.506-0.506,0.968-1.067,1.364-1.673c0.396-0.594,0.737-1.232,1.012-1.901c0.275-0.661,0.495-1.353,0.638-2.056    c0.132-0.704,0.209-1.43,0.209-2.144C353.232,255.286,353.155,254.56,353.023,253.856z" data-original="#000000" class="active-path" data-old_color="#FCFBFB" fill="#FFFEFE"/>
	</g>
</g><g>
	<g>
		<path d="M366.509,334.366c-18.421-18.419-48.391-18.419-66.808,0c-8.923,8.923-13.837,20.786-13.837,33.404    c0,12.619,4.914,24.482,13.837,33.404c8.923,8.923,20.786,13.837,33.404,13.837c12.618,0,24.482-4.914,33.404-13.837    C384.928,382.755,384.928,352.785,366.509,334.366z M350.956,385.622c-4.768,4.769-11.109,7.396-17.852,7.396    c-6.744,0-13.084-2.627-17.853-7.396c-4.768-4.768-7.395-11.109-7.395-17.852c0-6.743,2.626-13.084,7.395-17.852    c4.922-4.922,11.387-7.383,17.852-7.383s12.932,2.461,17.853,7.383c4.768,4.768,7.395,11.109,7.395,17.852    C358.351,374.513,355.725,380.854,350.956,385.622z" data-original="#000000" class="active-path" data-old_color="#FCFBFB" fill="#FFFEFE"/>
	</g>
</g><g>
	<g>
		<path d="M212.302,283.292c-18.419-18.419-48.389-18.417-66.808,0c-18.418,18.419-18.418,48.39,0,66.809    c9.21,9.211,21.307,13.814,33.404,13.814c12.097,0,24.195-4.605,33.404-13.814C230.72,331.683,230.72,301.712,212.302,283.292z     M196.749,334.552c-9.843,9.845-25.861,9.845-35.705,0c-9.843-9.845-9.843-25.862,0-35.706c4.923-4.923,11.387-7.383,17.853-7.383    c6.465,0,12.931,2.461,17.852,7.383C206.593,308.69,206.593,324.707,196.749,334.552z" data-original="#000000" class="active-path" data-old_color="#FCFBFB" fill="#FFFEFE"/>
	</g>
</g></g> </svg>
